<?xml version="1.0" encoding="UTF-8" standalone="no"?>
<svg
   xmlns:dc="http://purl.org/dc/elements/1.1/"
   xmlns:cc="http://creativecommons.org/ns#"
   xmlns:rdf="http://www.w3.org/1999/02/22-rdf-syntax-ns#"
   xmlns:svg="http://www.w3.org/2000/svg"
   xmlns="http://www.w3.org/2000/svg"
   xmlns:sodipodi="http://sodipodi.sourceforge.net/DTD/sodipodi-0.dtd"
   xmlns:inkscape="http://www.inkscape.org/namespaces/inkscape"
   width="600"
   height="600"
   version="1.0"
   id="svg2"
   inkscape:version="0.48.3.1 r9886"
   sodipodi:docname="zone_bit_recording.svg">
  <metadata
     id="metadata76">
    <rdf:RDF>
      <cc:Work
         rdf:about="">
        <dc:format>image/svg+xml</dc:format>
        <dc:type
           rdf:resource="http://purl.org/dc/dcmitype/StillImage" />
      </cc:Work>
    </rdf:RDF>
  </metadata>
  <sodipodi:namedview
     pagecolor="#ffffff"
     bordercolor="#666666"
     borderopacity="1"
     objecttolerance="10"
     gridtolerance="10"
     guidetolerance="10"
     inkscape:pageopacity="0"
     inkscape:pageshadow="2"
     inkscape:window-width="1362"
     inkscape:window-height="729"
     id="namedview74"
     showgrid="false"
     inkscape:zoom="0.5"
     inkscape:cx="58.021457"
     inkscape:cy="94.912272"
     inkscape:window-x="0"
     inkscape:window-y="37"
     inkscape:window-maximized="0"
     inkscape:current-layer="svg2" />
  <!-- Disk structure. Made by MistWiz and released in the Public Domain. -->
  <defs
     id="shapes_n_styles">
    <marker
       orient="auto"
       refY="0.0"
       refX="0.0"
       id="Arrow1Mend"
       style="overflow:visible;">
      <path
         d="M 0.0,0.0 L 5.0,-5.0 L -12.5,0.0 L 5.0,5.0 L 0.0,0.0 z "
         style="fill-rule:evenodd;stroke:#000000;stroke-width:1.0pt;marker-start:none;"
         transform="scale(0.4) rotate(180)"
         id="path6" />
    </marker>
    <style
       type="text/css"
       id="style8">
      .simple { stroke:#000000; stroke-width:1; fill:none; }
      .arrow { stroke:#000000; stroke-width:2; marker-end:url(#Arrow1Mend) }
      .lightGray { stroke:#000000; stroke-width:1; fill:#E0E0E0; }
      .white { stroke:#000000; stroke-width:1; fill:#FFFFFF; }
      .lightRed { stroke:#FF0000; stroke-width:1; fill:#FF8080; }
      .lightBlue { stroke:#0000FF; stroke-width:1; fill:#8080FF;}
      .violet { stroke:#FF00FF; stroke-width:1; fill:#A000A0;}    
      .green { stroke:#00FF00; stroke-width:1; fill:#00A000;}
      .labels {font-size:32px; font-style:normal; font-family:Bitstream Vera Sans}
    </style>
  </defs>
  <circle
     id="radius200"
     class="lightGray"
     cx="300"
     cy="300"
     r="200"
     sodipodi:cx="300"
     sodipodi:cy="300"
     sodipodi:rx="200"
     sodipodi:ry="200"
     transform="matrix(-1,0,0,1,600,0)"
     style="fill:#e0e0e0;stroke:#000000;stroke-width:1" />
  <circle
     id="radius150"
     class="green"
     cx="300"
     cy="300"
     r="150"
     sodipodi:cx="300"
     sodipodi:cy="300"
     sodipodi:rx="150"
     sodipodi:ry="150"
     transform="matrix(-1,0,0,1,600,0)"
     style="fill:#00a000;stroke:#00ff00;stroke-width:1" />
  <circle
     id="radius140"
     class="green"
     cx="300"
     cy="300"
     r="140"
     sodipodi:cx="300"
     sodipodi:cy="300"
     sodipodi:rx="140"
     sodipodi:ry="140"
     transform="matrix(-1,0,0,1,600,0)"
     style="fill:#00a000;stroke:#00ff00;stroke-width:1" />
  <circle
     id="radius130"
     class="green"
     cx="300"
     cy="300"
     r="130"
     sodipodi:cx="300"
     sodipodi:cy="300"
     sodipodi:rx="130"
     sodipodi:ry="130"
     transform="matrix(-1,0,0,1,600,0)"
     style="fill:#00a000;stroke:#00ff00;stroke-width:1" />
  <circle
     id="radius120"
     class="green"
     cx="300"
     cy="300"
     r="120"
     sodipodi:cx="300"
     sodipodi:cy="300"
     sodipodi:rx="120"
     sodipodi:ry="120"
     transform="matrix(-1,0,0,1,600,0)"
     style="fill:#00a000;stroke:#00ff00;stroke-width:1" />
  <circle
     id="radius110"
     class="green"
     cx="300"
     cy="300"
     r="110"
     sodipodi:cx="300"
     sodipodi:cy="300"
     sodipodi:rx="110"
     sodipodi:ry="110"
     transform="matrix(-1,0,0,1,600,0)"
     style="fill:#00a000;stroke:#00ff00;stroke-width:1" />
  <path
     sodipodi:type="arc"
     style="fill:#000080;fill-opacity:1"
     id="path3118-5"
     sodipodi:cx="153.2654"
     sodipodi:cy="135.96118"
     sodipodi:rx="21.036427"
     sodipodi:ry="21.036427"
     d="m 148.17622,115.54963 a 21.036427,21.036427 0 0 1 5.21254,-0.62451 l -0.12336,21.03606 z"
     transform="matrix(-7.1887966,0,0,7.1887966,1402.978,-677.02434)"
     sodipodi:start="4.4680429"
     sodipodi:end="4.7182533" />
  <circle
     id="radius100"
     class="lightRed"
     cx="300"
     cy="300"
     r="100"
     sodipodi:cx="300"
     sodipodi:cy="300"
     sodipodi:rx="100"
     sodipodi:ry="100"
     transform="matrix(-1,0,0,1,600,0)"
     style="fill:#ff8080;stroke:#ff0000;stroke-width:1" />
  <circle
     id="radius90"
     class="lightRed"
     cx="300"
     cy="300"
     r="90"
     sodipodi:cx="300"
     sodipodi:cy="300"
     sodipodi:rx="90"
     sodipodi:ry="90"
     transform="matrix(-1,0,0,1,600,0)"
     style="fill:#ff8080;stroke:#ff0000;stroke-width:1" />
  <circle
     id="radius80"
     class="lightRed"
     cx="300"
     cy="300"
     r="80"
     sodipodi:cx="300"
     sodipodi:cy="300"
     sodipodi:rx="80"
     sodipodi:ry="80"
     transform="matrix(-1,0,0,1,600,0)"
     style="fill:#ff8080;stroke:#ff0000;stroke-width:1" />
  <circle
     id="radius70"
     class="lightRed"
     cx="300"
     cy="300"
     r="70"
     sodipodi:cx="300"
     sodipodi:cy="300"
     sodipodi:rx="70"
     sodipodi:ry="70"
     transform="matrix(-1,0,0,1,600,0)"
     style="fill:#ff8080;stroke:#ff0000;stroke-width:1" />
  <circle
     id="radius60"
     class="lightRed"
     cx="300"
     cy="300"
     r="60"
     sodipodi:cx="300"
     sodipodi:cy="300"
     sodipodi:rx="60"
     sodipodi:ry="60"
     transform="matrix(-1,0,0,1,600,0)"
     style="fill:#ff8080;stroke:#ff0000;stroke-width:1" />
  <path
     sodipodi:type="arc"
     style="fill:#000080;fill-opacity:1;stroke-width:0.21089439;stroke-miterlimit:4;stroke-dasharray:none"
     id="path3118"
     sodipodi:cx="153.2654"
     sodipodi:cy="135.96118"
     sodipodi:rx="21.036427"
     sodipodi:ry="21.036427"
     d="m 142.79389,117.71622 a 21.036427,21.036427 0 0 1 10.59478,-2.7911 l -0.12327,21.03606 z"
     sodipodi:start="4.1913521"
     sodipodi:end="4.7182488"
     transform="matrix(-4.7951026,0,0,4.7951026,1035.0519,-351.75372)" />
  <circle
     id="radius160"
     class="simple"
     cx="300"
     cy="300"
     r="160"
     sodipodi:cx="300"
     sodipodi:cy="300"
     sodipodi:rx="160"
     sodipodi:ry="160"
     transform="matrix(-1,0,0,1,600,0)"
     style="fill:none;stroke:#000000;stroke-width:1" />
  <circle
     id="radius170"
     class="simple"
     cx="300"
     cy="300"
     r="170"
     sodipodi:cx="300"
     sodipodi:cy="300"
     sodipodi:rx="170"
     sodipodi:ry="170"
     transform="matrix(-1,0,0,1,600,0)"
     style="fill:none;stroke:#000000;stroke-width:1" />
  <circle
     id="radius180"
     class="simple"
     cx="300"
     cy="300"
     r="180"
     sodipodi:cx="300"
     sodipodi:cy="300"
     sodipodi:rx="180"
     sodipodi:ry="180"
     transform="matrix(-1,0,0,1,600,0)"
     style="fill:none;stroke:#000000;stroke-width:1" />
  <circle
     id="radius190"
     class="simple"
     cx="300"
     cy="300"
     r="190"
     sodipodi:cx="300"
     sodipodi:cy="300"
     sodipodi:rx="190"
     sodipodi:ry="190"
     transform="matrix(-1,0,0,1,600,0)"
     style="fill:none;stroke:#000000;stroke-width:1" />
  <path
     sodipodi:type="arc"
     style="fill:#000080;fill-opacity:1"
     id="path3118-5-9"
     sodipodi:cx="153.2654"
     sodipodi:cy="135.96118"
     sodipodi:rx="21.036427"
     sodipodi:ry="21.036427"
     d="m 150.7746,115.07274 a 21.036427,21.036427 0 0 1 2.61416,-0.14762 l -0.12336,21.03606 z"
     transform="matrix(-9.6509815,0,0,9.6509815,1779.6819,-1009.4848)"
     sodipodi:start="4.5937066"
     sodipodi:end="4.7182533" />
  <line
     id="0"
     class="simple"
     x1="250"
     y1="300"
     x2="100"
     y2="300"
     style="fill:none;stroke:#000000;stroke-width:1" />
  <circle
     id="radius50"
     class="white"
     cx="300"
     cy="300"
     r="50"
     sodipodi:cx="300"
     sodipodi:cy="300"
     sodipodi:rx="50"
     sodipodi:ry="50"
     transform="matrix(-1,0,0,1,600,0)"
     style="fill:#ffffff;stroke:#000000;stroke-width:1" />
  <line
     id="7"
     class="simple"
     x1="101"
     y1="278"
     x2="150"
     y2="280"
     style="fill:none;stroke:#000000;stroke-width:1" />
  <line
     id="15"
     class="simple"
     x1="106.5"
     y1="247"
     x2="204.5"
     y2="273"
     style="fill:none;stroke:#000000;stroke-width:1" />
  <line
     id="22"
     class="simple"
     x1="114"
     y1="220"
     x2="160"
     y2="242"
     style="fill:none;stroke:#000000;stroke-width:1" />
  <line
     id="30"
     class="simple"
     x1="126.79999"
     y1="200"
     x2="256.70001"
     y2="275"
     style="fill:none;stroke:#000000;stroke-width:1" />
  <line
     id="37"
     class="simple"
     x1="138"
     y1="180"
     x2="180"
     y2="212"
     style="fill:none;stroke:#000000;stroke-width:1" />
  <line
     id="45"
     class="simple"
     x1="155"
     y1="163"
     x2="230"
     y2="230"
     style="fill:none;stroke:#000000;stroke-width:1" />
  <line
     id="52"
     class="simple"
     x1="177"
     y1="143"
     x2="207"
     y2="183"
     style="fill:none;stroke:#000000;stroke-width:1" />
  <line
     id="60"
     class="simple"
     x1="200"
     y1="128.8"
     x2="275"
     y2="256.70001"
     style="fill:none;stroke:#000000;stroke-width:1" />
  <line
     id="67"
     class="simple"
     x1="222"
     y1="115"
     x2="244"
     y2="162"
     style="fill:none;stroke:#000000;stroke-width:1" />
  <line
     id="75"
     class="simple"
     x1="250"
     y1="105"
     x2="275"
     y2="204"
     style="fill:none;stroke:#000000;stroke-width:1" />
  <line
     id="82"
     class="simple"
     x1="275"
     y1="102"
     x2="281"
     y2="152"
     style="fill:none;stroke:#000000;stroke-width:1" />
  <line
     id="90"
     class="simple"
     x1="300"
     y1="100"
     x2="300"
     y2="250"
     style="fill:none;stroke:#000000;stroke-width:1" />
  <line
     id="97"
     class="simple"
     x1="325"
     y1="102"
     x2="318"
     y2="152"
     style="fill:none;stroke:#000000;stroke-width:1" />
  <line
     id="105"
     class="simple"
     x1="350"
     y1="107"
     x2="325"
     y2="204"
     style="fill:none;stroke:#000000;stroke-width:1" />
  <line
     id="112"
     class="simple"
     x1="375"
     y1="113"
     x2="354"
     y2="161"
     style="fill:none;stroke:#000000;stroke-width:1" />
  <line
     id="120"
     class="simple"
     x1="400"
     y1="128.8"
     x2="325"
     y2="256.70001"
     style="fill:none;stroke:#000000;stroke-width:1" />
  <line
     id="127"
     class="simple"
     x1="420"
     y1="140"
     x2="390"
     y2="180"
     style="fill:none;stroke:#000000;stroke-width:1" />
  <line
     id="135"
     class="simple"
     x1="441"
     y1="157"
     x2="370"
     y2="230"
     style="fill:none;stroke:#000000;stroke-width:1" />
  <line
     id="142"
     class="simple"
     x1="458"
     y1="175"
     x2="415"
     y2="205"
     style="fill:none;stroke:#000000;stroke-width:1" />
  <line
     id="150"
     class="simple"
     x1="471.20001"
     y1="200"
     x2="343.29999"
     y2="275"
     style="fill:none;stroke:#000000;stroke-width:1" />
  <line
     id="157"
     class="simple"
     x1="487"
     y1="227"
     x2="437"
     y2="243"
     style="fill:none;stroke:#000000;stroke-width:1" />
  <line
     id="165"
     class="simple"
     x1="494"
     y1="250"
     x2="395"
     y2="272"
     style="fill:none;stroke:#000000;stroke-width:1" />
  <line
     id="172"
     class="simple"
     x1="500"
     y1="277"
     x2="447"
     y2="283"
     style="fill:none;stroke:#000000;stroke-width:1" />
  <line
     id="180"
     class="simple"
     x1="500"
     y1="300"
     x2="350"
     y2="300"
     style="fill:none;stroke:#000000;stroke-width:1" />
  <line
     id="187"
     class="simple"
     x1="499"
     y1="327"
     x2="447"
     y2="318"
     style="fill:none;stroke:#000000;stroke-width:1" />
  <line
     id="195"
     class="simple"
     x1="494"
     y1="350"
     x2="396"
     y2="322"
     style="fill:none;stroke:#000000;stroke-width:1" />
  <line
     id="202"
     class="simple"
     x1="486"
     y1="375"
     x2="440"
     y2="355"
     style="fill:none;stroke:#000000;stroke-width:1" />
  <line
     id="210"
     class="simple"
     x1="471.20001"
     y1="400"
     x2="343.29999"
     y2="325"
     style="fill:none;stroke:#000000;stroke-width:1" />
  <line
     id="217"
     class="simple"
     x1="458"
     y1="423"
     x2="420"
     y2="390"
     style="fill:none;stroke:#000000;stroke-width:1" />
  <line
     id="225"
     class="simple"
     x1="442"
     y1="440"
     x2="370"
     y2="370"
     style="fill:none;stroke:#000000;stroke-width:1" />
  <line
     id="232"
     class="simple"
     x1="426"
     y1="457"
     x2="393"
     y2="418"
     style="fill:none;stroke:#000000;stroke-width:1" />
  <line
     id="240"
     class="simple"
     x1="400"
     y1="473.20001"
     x2="325"
     y2="343.29999"
     style="fill:none;stroke:#000000;stroke-width:1" />
  <line
     id="247"
     class="simple"
     x1="376"
     y1="484"
     x2="355"
     y2="438"
     style="fill:none;stroke:#000000;stroke-width:1" />
  <line
     id="255"
     class="simple"
     x1="352"
     y1="494"
     x2="322"
     y2="397"
     style="fill:none;stroke:#000000;stroke-width:1" />
  <line
     id="262"
     class="simple"
     x1="325"
     y1="498"
     x2="318"
     y2="448"
     style="fill:none;stroke:#000000;stroke-width:1" />
  <line
     id="270"
     class="simple"
     x1="300"
     y1="350"
     x2="300"
     y2="500"
     style="fill:none;stroke:#000000;stroke-width:1" />
  <line
     id="277"
     class="simple"
     x1="275"
     y1="498"
     x2="280"
     y2="448"
     style="fill:none;stroke:#000000;stroke-width:1" />
  <line
     id="285"
     class="simple"
     x1="250"
     y1="494"
     x2="275"
     y2="397"
     style="fill:none;stroke:#000000;stroke-width:1" />
  <line
     id="292"
     class="simple"
     x1="225"
     y1="485"
     x2="245"
     y2="440"
     style="fill:none;stroke:#000000;stroke-width:1" />
  <line
     id="300"
     class="simple"
     x1="200"
     y1="473.20001"
     x2="275"
     y2="343.29999"
     style="fill:none;stroke:#000000;stroke-width:1" />
  <line
     id="307"
     class="simple"
     x1="180"
     y1="460"
     x2="210"
     y2="420"
     style="fill:none;stroke:#000000;stroke-width:1" />
  <line
     id="315"
     class="simple"
     x1="155"
     y1="439"
     x2="230"
     y2="370"
     style="fill:none;stroke:#000000;stroke-width:1" />
  <line
     id="322"
     class="simple"
     x1="140"
     y1="420"
     x2="182"
     y2="390"
     style="fill:none;stroke:#000000;stroke-width:1" />
  <line
     id="330"
     class="simple"
     x1="126.79999"
     y1="400"
     x2="256.70001"
     y2="325"
     style="fill:none;stroke:#000000;stroke-width:1" />
  <line
     id="337"
     class="simple"
     x1="115"
     y1="380"
     x2="162"
     y2="360"
     style="fill:none;stroke:#000000;stroke-width:1" />
  <line
     id="345"
     class="simple"
     x1="108"
     y1="355"
     x2="206"
     y2="325"
     style="fill:none;stroke:#000000;stroke-width:1" />
  <line
     id="352"
     class="simple"
     x1="102"
     y1="325"
     x2="152"
     y2="320"
     style="fill:none;stroke:#000000;stroke-width:1" />
  <!-- A for track 
  <path id="arrowA" class="simple" d="M 364.7047613,58.51854343 L 329.7641902,188.91853 Z"/>
  <text class="labels" x="364.7047613" y="58.51854343">A</text> -->
  <!-- B for sector
  <path id="arrowB" class="simple" d="M 491.5111108, 139.3030976 L 453.2088886,171.4424781 Z"/>
  <text class="labels" x="491.5111108" y="139.3030976">B</text>
  -->
  <path
     sodipodi:type="arc"
     style="fill:#000080;fill-opacity:1"
     id="path3168"
     sodipodi:cx="282.48917"
     sodipodi:cy="165.12933"
     sodipodi:rx="6.7175145"
     sodipodi:ry="26.870058"
     d="m 279.14532,141.82484 a 6.7175145,26.870058 0 0 1 3.38321,-3.5651 l -0.0394,26.86959 z"
     sodipodi:start="4.1913521"
     sodipodi:end="4.7182488"
     transform="matrix(-1,0,0,1,600,0)" />
  <rect
     style="fill:#000080;fill-opacity:1;stroke:#000000;stroke-width:1;stroke-miterlimit:4;stroke-dasharray:none"
     id="rect3962"
     width="31"
     height="15"
     x="40.081474"
     y="549.60663" />
  <text
     xml:space="preserve"
     style="font-size:40px;font-style:normal;font-weight:normal;line-height:125%;letter-spacing:0px;word-spacing:0px;fill:#000000;fill-opacity:1;stroke:none;font-family:Sans"
     x="83.69165"
     y="563.07788"
     id="text3964"
     sodipodi:linespacing="125%"><tspan
       sodipodi:role="line"
       id="tspan3966"
       x="83.69165"
       y="563.07788"
       style="font-size:24px">Sector 0</tspan></text>
</svg>
